<svg width="24" height="24" viewBox="0 0 24 24" fill="none" xmlns="http://www.w3.org/2000/svg">
<path fill-rule="evenodd" clip-rule="evenodd" d="M4.22217 4.22079C3.83165 4.61131 3.83165 5.24448 4.22217 5.635L10.5861 11.999L4.22114 18.364C3.83061 18.7545 3.83061 19.3877 4.22114 19.7782C4.61166 20.1687 5.24483 20.1687 5.63535 19.7782L12.0003 13.4132L18.3643 19.7771C18.7548 20.1677 19.388 20.1677 19.7785 19.7771C20.169 19.3866 20.169 18.7534 19.7785 18.3629L13.4146 11.999L19.7775 5.63604C20.168 5.24551 20.168 4.61235 19.7775 4.22183C19.387 3.8313 18.7538 3.8313 18.3633 4.22183L12.0003 10.5848L5.63639 4.22079C5.24586 3.83027 4.6127 3.83027 4.22217 4.22079Z" fill="white"/>
</svg>
